<?xml version="1.0" encoding="UTF-8" standalone="no"?>
<!DOCTYPE svg PUBLIC "-//W3C//DTD SVG 1.1//EN" "http://www.w3.org/Graphics/SVG/1.1/DTD/svg11.dtd">
<svg fill="#00d3c2" width="100%" height="100%" viewBox="0 0 938 938" version="1.1" xmlns="http://www.w3.org/2000/svg" xmlns:xlink="http://www.w3.org/1999/xlink" xml:space="preserve" xmlns:serif="http://www.serif.com/" style="fill-rule:evenodd;clip-rule:evenodd;stroke-linejoin:round;stroke-miterlimit:2;">
  <rect id="homeHouse" x="0" y="0" width="937.5" height="937.5" style="fill:none;" />
  <clipPath id="_clip1">
    <rect x="0" y="0" width="937.5" height="937.5" />
  </clipPath>
  <g clip-path="url(#_clip1)">
    <path d="M917.092,424.276l-399.073,-403.635c-27.211,-27.521 -71.326,-27.521 -98.537,0l-399.072,403.635c-19.927,20.155 -25.886,50.466 -15.105,76.8c10.787,26.334 36.193,43.502 64.373,43.502l54.067,-0l0,301.78c0,50.34 40.347,91.142 90.112,91.142l509.787,-0c49.765,-0 90.112,-40.805 90.112,-91.142l-0,-301.78l54.067,-0c28.18,-0 53.589,-17.171 64.373,-43.502c10.781,-26.334 4.823,-56.645 -15.104,-76.8Zm-343.052,381.051l-210.578,-0l-0,-120.063c-0,-58.816 47.14,-106.492 105.289,-106.492c58.148,-0 105.289,47.674 105.289,106.492l-0,120.063Z" style="fill-rule:nonzero;" />
  </g>
</svg>
