<?xml version="1.0" encoding="UTF-8" standalone="no"?>
<!DOCTYPE svg PUBLIC "-//W3C//DTD SVG 1.1//EN" "http://www.w3.org/Graphics/SVG/1.1/DTD/svg11.dtd">
<svg height="100%" fill="#00d3c2" style="fill-rule:evenodd;clip-rule:evenodd;stroke-linejoin:round;stroke-miterlimit:2;" version="1.1" viewBox="0 0 313 313" width="100%" xml:space="preserve" xmlns="http://www.w3.org/2000/svg" xmlns:serif="http://www.serif.com/" xmlns:xlink="http://www.w3.org/1999/xlink">
  <rect height="312.5" id="Artboard1" style="fill:none;" width="312.5" x="0" y="0" />
  <g id="Artboard11" serif:id="Artboard1">
    <path d="M221.719,0l-130.938,0c-56.875,0 -90.781,33.906 -90.781,90.781l0,130.782c0,57.031 33.906,90.937 90.781,90.937l130.782,0c56.875,0 90.781,-33.906 90.781,-90.781l-0,-130.938c0.156,-56.875 -33.75,-90.781 -90.625,-90.781Zm-97.656,176.094c-10.625,15.937 -25.313,28.906 -42.5,37.5c-1.563,0.781 -3.438,1.25 -5.157,1.25c-4.375,-0 -8.437,-2.344 -10.468,-6.406c-2.969,-5.782 -0.625,-12.813 5.312,-15.782c13.594,-6.718 25.156,-17.031 33.438,-29.531c2.812,-4.219 2.812,-9.531 -0,-13.75c-8.438,-12.5 -20,-22.812 -33.438,-29.531c-5.937,-2.813 -8.281,-9.844 -5.312,-15.781c2.812,-5.782 9.843,-8.125 15.625,-5.157c17.187,8.594 31.875,21.563 42.5,37.5c8.125,12.032 8.125,27.657 -0,39.688Zm110.312,38.75l-62.5,-0c-6.406,-0 -11.719,-5.313 -11.719,-11.719c0,-6.406 5.313,-11.719 11.719,-11.719l62.5,0c6.406,0 11.719,5.313 11.719,11.719c-0,6.406 -5.313,11.719 -11.719,11.719Z" style="fill-rule:nonzero;" />
  </g>
</svg>
