<?xml version="1.0" encoding="UTF-8" standalone="no"?>
<!DOCTYPE svg PUBLIC "-//W3C//DTD SVG 1.1//EN" "http://www.w3.org/Graphics/SVG/1.1/DTD/svg11.dtd">
<svg fill="#00d3c2" width="100%" height="100%" viewBox="0 0 938 938" version="1.1" xmlns="http://www.w3.org/2000/svg" xmlns:xlink="http://www.w3.org/1999/xlink" xml:space="preserve" xmlns:serif="http://www.serif.com/" style="fill-rule:evenodd;clip-rule:evenodd;stroke-linejoin:round;stroke-miterlimit:2;">
  <rect id="Artboard1" x="0" y="0" width="937.5" height="937.5" style="fill:none;" />
  <clipPath id="_clip1">
    <rect id="Artboard11" serif:id="Artboard1" x="0" y="0" width="937.5" height="937.5" />
  </clipPath>
  <g clip-path="url(#_clip1)">
    <g>
      <path d="M623.547,0l-590.844,0c-18.06,0 -32.703,17.064 -32.703,38.111l0,861.28c0,21.048 14.643,38.109 32.703,38.109l590.844,0c18.062,0 32.703,-17.064 32.703,-38.109l0,-861.28c0,-21.047 -14.643,-38.111 -32.703,-38.111Zm-379.361,233.74l169.198,-0c16.788,-0 31.517,14.332 33.359,33.775c2.175,22.987 -13.21,42.444 -32.5,42.444l-169.198,0c-16.788,0 -31.517,-14.332 -33.359,-33.775c-2.175,-22.987 13.213,-42.444 32.5,-42.444Zm244.186,472.562l-317.454,-0c-16.787,-0 -31.516,-14.333 -33.358,-33.776c-2.175,-22.986 13.213,-42.444 32.499,-42.444l317.456,-0c16.787,-0 31.516,14.332 33.358,33.775c2.173,22.989 -13.215,42.445 -32.501,42.445Zm-0,-198.17l-317.454,-0c-16.787,-0 -31.516,-14.333 -33.358,-33.776c-2.175,-22.986 13.213,-42.444 32.499,-42.444l317.456,-0c16.787,-0 31.516,14.332 33.358,33.775c2.173,22.987 -13.215,42.445 -32.501,42.445Z" style="fill-rule:nonzero;" />
    </g>
    <g>
      <path d="M926.6,154.739l-180.96,-0c-6.02,-0 -10.9,7.318 -10.9,16.342l-0,529.541c-0,9.027 4.882,16.343 10.9,16.343l180.96,-0c6.018,-0 10.9,-7.319 10.9,-16.343l0,-529.538c0,-9.027 -4.882,-16.345 -10.9,-16.345Z" style="fill-rule:nonzero;" />
    </g>
    <g>
      <path d="M904.797,0l-137.354,0c-18.062,0 -32.703,14.643 -32.703,32.703l-0,69.766c-0,6.021 4.882,10.901 10.9,10.901l180.96,-0c6.018,-0 10.9,-4.882 10.9,-10.901l-0,-69.765c0,-18.061 -14.643,-32.704 -32.703,-32.704Z" style="fill-rule:nonzero;" />
    </g>
    <g>
      <path d="M910.291,769.863l-148.343,0c-7.744,0 -13.019,7.848 -10.093,15.02l53.985,132.314c11.036,27.052 49.512,27.089 60.56,0l53.985,-132.314c2.926,-7.17 -2.351,-15.02 -10.094,-15.02Z" style="fill-rule:nonzero;" />
    </g>
  </g>
</svg>
